<?xml version="1.0" encoding="utf-8"?>
<!-- Generator: Adobe Illustrator 27.1.1, SVG Export Plug-In . SVG Version: 6.00 Build 0)  -->
<svg version="1.1" id="Layer_1" xmlns="http://www.w3.org/2000/svg" xmlns:xlink="http://www.w3.org/1999/xlink" x="0px" y="0px"
	 viewBox="0 0 934.2 612" style="enable-background:new 0 0 934.2 612;" xml:space="preserve">
<style type="text/css">
	.st0{enable-background:new    ;}
	.st1{fill:#FFFFFF;}
</style>
<g class="st0">
	<path class="st1" d="M311.7,199.6c0,65.5-34.4,110.3-104.9,110.3c-55.7,0-87-41.2-77.2-96.8c9.8-56.4,50.5-92.2,114.4-92.2
		c17.1,0,34.4,2.1,49.5,6l-7.5,50l-2.6,1.8c-14.5-6.2-29.3-9.3-43.5-9.3c-31.6,0-50.5,15.5-55.9,46.9c-4.7,26.4,3.9,46.6,34.2,46.6
		c18.6,0,33.9-8.3,38.8-21.2h-39.4l7.2-41.9H311.7z"/>
	<path class="st1" d="M313,306l31.8-181.2h73.3c40.9,0,65.8,21.7,59.3,59.5c-3.6,20.7-18.1,40.9-38.6,50.7l23,68.4l-2.1,2.6H401
		l-12.7-55.9h-12.2l-9.8,55.9H313z M402.8,205.5c9.3,0,16.6-6,18.4-15.8c1.8-10.4-3.1-16.1-14.2-16.1h-17.3l-5.7,31.8H402.8z"/>
	<path class="st1" d="M539.8,254.7h56.2l-9.1,51.3H477.4l31.8-181.2h53.3L539.8,254.7z"/>
</g>
<g class="st0">
	<path class="st1" d="M273.5,393.2c0,65.5-34.4,110.3-104.9,110.3c-55.7,0-87-41.2-77.2-96.8c9.8-56.4,50.5-92.2,114.4-92.2
		c17.1,0,34.4,2.1,49.5,6l-7.5,50l-2.6,1.8c-14.5-6.2-29.3-9.3-43.5-9.3c-31.6,0-50.5,15.5-55.9,46.9c-4.7,26.4,3.9,46.6,34.2,46.6
		c18.6,0,33.9-8.3,38.8-21.2h-39.4l7.2-41.9H273.5z"/>
	<path class="st1" d="M343.4,318.4H411l24.6,181.2h-57l-1.3-26.7H324l-10.6,26.7h-58.3L343.4,318.4z M344.5,427.2h28.5l-3.4-62.9
		L344.5,427.2z"/>
	<path class="st1" d="M477.5,318.4h53.3L499,499.6h-53.3L477.5,318.4z"/>
	<path class="st1" d="M555.2,318.4h41.7l41.4,92.4l2.1-31.1l10.9-61.4h53.3l-31.8,181.2h-41.9l-41.7-93.7l-1.8,33.4l-10.6,60.3
		h-53.3L555.2,318.4z"/>
	<path class="st1" d="M723.8,318.4h124l-4.7,40.9l-78.5,89.8h64.2l-8.8,50.5H694l4.9-40.9l78.2-89.6h-62.1L723.8,318.4z"/>
</g>
</svg>
